# xmcd
#
# Track frame offsets: 
#        150
#        12217
#        31669
#        51581
#        76674
#        123717
#
# Disc length: 2659 seconds
#
# Revision: 0
# Processed by: cddbd v1.5.2PL0 Copyright (c) Steve Scherf et al.
# Submitted via: ExactAudioCopy v1.0b3
#
DISCID=410a6106
DTITLE=Arzachel - Arzachel
DYEAR=1969
DGENRE=Psychedelic
TTITLE0=Garden Of Earthly Delights
TTITLE1=Azathoth
TTITLE2=Queen St. Gang (Soul Thing)
TTITLE3=Leg
TTITLE4=Clean Innocent Fun
TTITLE5=Metempsychosis
EXTD=
EXTT0=
EXTT1=
EXTT2=
EXTT3=
EXTT4=
EXTT5=
PLAYORDER=
